<?xml version="1.0" encoding="UTF-8"?>
<svg xmlns="http://www.w3.org/2000/svg" version="1.1" viewBox="0 0 34.13 26.67">
  <defs>
    <style>
      .cls-1 {
        fill: none;
        stroke: #022933;
        stroke-miterlimit: 10;
        stroke-width: .25px;
      }

      .cls-2 {
        fill: #022933;
      }
    </style>
  </defs>
  <!-- Generator: Adobe Illustrator 28.6.0, SVG Export Plug-In . SVG Version: 1.2.0 Build 709)  -->
  <g>
    <g id="Capa_1">
      <g>
        <g>
          <path class="cls-1" d="M17.86,19.24c-.32,1.1-.74,2.13-1.27,3.09-.71,1.3-1.65,2.35-2.81,3.15-1.16.8-2.57,1.2-4.24,1.2-1.81,0-3.31-.39-4.5-1.16-1.19-.77-2.12-1.8-2.79-3.07-.67-1.27-1.14-2.67-1.41-4.2-.27-1.52-.41-3.04-.41-4.54s.17-3.03.52-4.58c.35-1.55.89-2.97,1.63-4.27.74-1.3,1.69-2.35,2.86-3.15,1.17-.8,2.59-1.2,4.25-1.2s3.19.39,4.34,1.18c1.16.79,2.07,1.82,2.75,3.09.43.8.89,2.04,1.16,2.94M14.37,7.72c-.14-.63-.3-1.24-.5-1.82-.41-1.22-.95-2.19-1.64-2.93-.69-.74-1.56-1.11-2.61-1.11s-1.89.32-2.59.97c-.7.64-1.27,1.5-1.7,2.57-.43,1.07-.74,2.26-.93,3.57-.19,1.31-.29,2.63-.29,3.97,0,1,.05,2.06.14,3.18.09,1.12.27,2.22.52,3.31.25,1.08.59,2.07,1.02,2.95.43.88.97,1.58,1.61,2.11.64.52,1.43.79,2.36.79,1.02,0,1.87-.32,2.54-.97.67-.64,1.2-1.5,1.59-2.57.28-.78.51-1.61.68-2.51"/>
          <path class="cls-1" d="M24.7,26.1v-1.18c.83-.05,1.47-.24,1.91-.57.44-.33.75-.8.93-1.39.18-.6.27-1.3.27-2.11l-.11-16.87-4.29,2.75-.71-1.04L29.67.51h1.22l.04,21.7c0,.45,0,.89-.02,1.32-.01.43-.04.81-.09,1.14.5-.02,1-.05,1.5-.07.5-.02,1-.05,1.5-.07v1.57h-9.11Z"/>
        </g>
        <g>
          <path class="cls-2" d="M20.75,18.4h-7.62c-.91,0-1.66-.74-1.66-1.66v-5.72c0-.91.74-1.66,1.66-1.66h7.62c.91,0,1.66.74,1.66,1.66v5.72c0,.91-.74,1.66-1.66,1.66ZM13.13,9.91c-.62,0-1.12.5-1.12,1.12v5.72c0,.62.5,1.12,1.12,1.12h7.62c.62,0,1.12-.5,1.12-1.12v-5.72c0-.62-.5-1.12-1.12-1.12h-7.62Z"/>
          <path class="cls-2" d="M21.06,12.21h-8.23c-.15,0-.27-.12-.27-.27s.12-.27.27-.27h8.23c.15,0,.27.12.27.27s-.12.27-.27.27Z"/>
          <path class="cls-2" d="M13.9,10.57c-.15,0-.27-.12-.27-.27v-1.52c0-.15.12-.27.27-.27s.27.12.27.27v1.52c0,.15-.12.27-.27.27Z"/>
          <path class="cls-2" d="M16.94,10.57c-.15,0-.27-.12-.27-.27v-1.52c0-.15.12-.27.27-.27s.27.12.27.27v1.52c0,.15-.12.27-.27.27Z"/>
          <path class="cls-2" d="M19.98,10.57c-.15,0-.27-.12-.27-.27v-1.52c0-.15.12-.27.27-.27s.27.12.27.27v1.52c0,.15-.12.27-.27.27Z"/>
        </g>
      </g>
    </g>
  </g>
</svg>