<?xml version="1.0" encoding="UTF-8"?>
<svg xmlns="http://www.w3.org/2000/svg" version="1.1" viewBox="0 0 39.36 26.61">
  <defs>
    <style>
      .cls-1 {
        fill: #002430;
      }
    </style>
  </defs>
  <!-- Generator: Adobe Illustrator 28.7.1, SVG Export Plug-In . SVG Version: 1.2.0 Build 142)  -->
  <g>
    <g id="Capa_1">
      <g>
        <g>
          <path class="cls-1" d="M9.27,26.49c-1.83,0-3.37-.4-4.57-1.18-1.2-.78-2.16-1.83-2.83-3.12-.67-1.28-1.15-2.7-1.42-4.24-.27-1.52-.41-3.06-.41-4.56s.18-3.05.52-4.6c.35-1.55.9-3,1.64-4.31.74-1.31,1.72-2.38,2.9-3.19C6.28.49,7.73.08,9.42.08s3.24.4,4.41,1.2c1.15.78,2.07,1.81,2.76,3.07.02.02.03.05.04.07.03.05.08.16-.03.22-.11.06-.17-.05-.2-.1h0c-.67-1.25-1.58-2.28-2.71-3.05-1.13-.77-2.57-1.16-4.27-1.16s-3.04.4-4.18,1.18c-1.15.78-2.1,1.83-2.82,3.1-.73,1.28-1.27,2.71-1.61,4.24-.34,1.53-.52,3.06-.52,4.55s.14,3.01.41,4.52c.27,1.51.74,2.91,1.4,4.17.65,1.25,1.58,2.27,2.75,3.03,1.17.76,2.66,1.14,4.44,1.14,1.63,0,3.03-.4,4.16-1.17,1.13-.78,2.06-1.83,2.77-3.1.43-.78.8-1.63,1.09-2.52l.24.08c-.3.91-.67,1.77-1.11,2.57-.72,1.31-1.68,2.38-2.84,3.19-1.17.81-2.62,1.22-4.31,1.22ZM9.49,25.1c-.95,0-1.77-.27-2.44-.82-.65-.53-1.21-1.26-1.64-2.15-.43-.89-.78-1.89-1.03-2.97-.25-1.09-.43-2.21-.52-3.32-.09-1.11-.14-2.18-.14-3.19,0-1.34.1-2.68.29-3.99.19-1.31.51-2.53.94-3.6.43-1.08,1.02-1.97,1.73-2.62.72-.66,1.62-1,2.67-1s1.99.39,2.7,1.15c.11.12.21.22.31.32.43.44.77.78,1.08,1.58l-.23.09c-.3-.75-.6-1.06-1.03-1.49-.1-.1-.2-.21-.31-.32-.66-.71-1.51-1.07-2.52-1.07s-1.83.31-2.51.93c-.69.63-1.25,1.48-1.67,2.53-.42,1.06-.73,2.25-.92,3.55-.19,1.29-.29,2.62-.29,3.95,0,1,.05,2.07.14,3.17.09,1.1.27,2.21.52,3.29.25,1.07.59,2.05,1.01,2.92.42.86.95,1.56,1.58,2.07.62.5,1.38.76,2.28.76.99,0,1.81-.31,2.45-.93.65-.63,1.17-1.48,1.56-2.53.22-.6.41-1.24.55-1.92l.24.05c-.15.68-.34,1.34-.56,1.95-.4,1.09-.94,1.97-1.62,2.62-.69.66-1.57,1-2.62,1Z"/>
          <path class="cls-1" d="M39.02,25.92h-15.72v-.12c0-1.27.2-2.42.6-3.41.4-.99.94-1.9,1.61-2.73.66-.82,1.43-1.63,2.28-2.41.84-.77,1.71-1.59,2.59-2.45,1.53-1.46,2.65-2.83,3.34-4.08.68-1.24,1.02-2.45,1.02-3.59,0-.89-.12-1.76-.37-2.59-.24-.82-.68-1.5-1.3-2.03-.62-.53-1.49-.79-2.6-.79-.95,0-1.8.24-2.54.71-.71.45-1.2,1.02-1.46,1.67.22.23.38.49.47.76.1.29.15.57.15.85,0,.23-.06.49-.17.76-.11.28-.31.53-.6.73-.28.21-.66.31-1.11.31-.57-.03-1.01-.25-1.31-.66-.3-.4-.45-.88-.45-1.43,0-.52.16-1.1.48-1.72.31-.62.8-1.21,1.44-1.75.64-.54,1.44-1,2.38-1.34.94-.35,2.05-.53,3.3-.53.96,0,1.9.12,2.8.34.91.23,1.73.6,2.45,1.11.73.51,1.31,1.19,1.74,2.03.42.84.64,1.88.64,3.11,0,.61-.13,1.27-.38,1.97-.25.7-.67,1.46-1.23,2.26-.56.8-1.29,1.66-2.18,2.55-.88.89-1.98,1.87-3.26,2.92-1.61,1.33-2.95,2.59-3.97,3.76-.96,1.09-1.54,2.04-1.74,2.82l6.17.17c1.16.02,2.2.02,3.08,0,.86-.02,1.55-.2,2.04-.53.47-.32.71-.93.71-1.81v-.12h1.33l-.23,5.25ZM23.56,25.67h15.23l.2-4.75h-.82c-.02.9-.3,1.54-.82,1.89-.53.36-1.26.55-2.17.58-.89.02-1.93.02-3.1,0l-6.47-.18.03-.15c.17-.85.79-1.89,1.83-3.08,1.03-1.18,2.38-2.45,4-3.78,1.28-1.04,2.37-2.02,3.24-2.9.87-.88,1.6-1.73,2.15-2.52.55-.79.96-1.53,1.2-2.2.24-.68.37-1.31.37-1.89,0-1.19-.21-2.2-.61-3-.41-.8-.96-1.45-1.66-1.94-.7-.49-1.5-.85-2.37-1.07-.88-.22-1.8-.34-2.74-.34-1.22,0-2.3.17-3.21.51-.91.34-1.69.78-2.3,1.3-.62.52-1.08,1.09-1.38,1.68-.3.59-.45,1.13-.45,1.61s.14.93.4,1.28c.27.35.63.54,1.12.56.39,0,.72-.09.96-.26.24-.18.41-.39.51-.62.1-.25.15-.47.15-.67,0-.25-.05-.5-.14-.76-.09-.25-.25-.5-.47-.72l-.06-.06.03-.07c.27-.74.8-1.37,1.59-1.87.78-.5,1.68-.75,2.68-.75,1.17,0,2.1.29,2.76.85.66.56,1.12,1.29,1.38,2.15.25.85.38,1.75.38,2.66,0,1.18-.35,2.43-1.05,3.71-.69,1.27-1.83,2.66-3.38,4.14-.88.85-1.75,1.68-2.59,2.45-.84.77-1.6,1.57-2.26,2.38-.66.81-1.18,1.7-1.57,2.67-.37.93-.57,2-.58,3.19Z"/>
        </g>
        <path class="cls-1" d="M18.43,5.65c.92,0,1.74.37,2.34.97s.97,1.43.97,2.34-.37,1.74-.97,2.34-1.43.97-2.34.97-1.74-.37-2.34-.97c-.6-.6-.97-1.43-.97-2.34s.37-1.74.97-2.34c.6-.6,1.43-.97,2.34-.97h0ZM18.48,13.08c1.45,0,2.76.59,3.72,1.55.95.95,1.55,2.27,1.55,3.72,0,.11-.09.19-.19.19h-10.24c-.11,0-.19-.09-.19-.19,0-1.48.59-2.79,1.56-3.73.97-.96,2.32-1.53,3.81-1.53h0ZM21.92,14.9c-.88-.88-2.11-1.43-3.45-1.43s-2.64.54-3.54,1.42c-.85.83-1.39,1.97-1.44,3.27h9.85c-.05-1.27-.59-2.41-1.43-3.26h0ZM20.5,6.89c-.53-.53-1.26-.86-2.07-.86s-1.54.33-2.07.86c-.53.53-.86,1.26-.86,2.07s.33,1.54.86,2.07c.53.53,1.26.86,2.07.86s1.54-.33,2.07-.86c.53-.53.86-1.26.86-2.07s-.33-1.54-.86-2.07h0Z"/>
      </g>
    </g>
  </g>
</svg>