<?xml version="1.0" encoding="UTF-8"?>
<svg id="Capa_1" xmlns="http://www.w3.org/2000/svg" viewBox="0 0 13.36 16.61">
  <defs>
    <style>
      .cls-1 {
        fill: #002430;
      }
    </style>
  </defs>
  <path class="cls-1" d="M13.04,16.59h-1V5.37c0-2.4-2.09-4.35-4.66-4.35h-1.4C3.41,1.02,1.32,2.97,1.32,5.37v11.1H.32V5.37C.32,2.42,2.86.02,5.98.02h1.4C10.5.02,13.04,2.42,13.04,5.37v11.22Z"/>
  <path class="cls-1" d="M11.05,16.59h-1V7.12c0-1.98-1.33-3.59-2.96-3.59h-.93c-1.63,0-2.96,1.61-2.96,3.59v9.37h-1V7.12c0-2.53,1.78-4.59,3.96-4.59h.93c2.18,0,3.96,2.06,3.96,4.59v9.47Z"/>
  <path class="cls-1" d="M4.27,16.5v-7.77c0-1.87.9-3.39,2.02-3.39h.55c1.12,0,2.02,1.52,2.02,3.39v7.85l-4.59-.08Z"/>
</svg>