<?xml version="1.0" encoding="UTF-8"?>
<svg xmlns="http://www.w3.org/2000/svg" version="1.1" viewBox="0 0 19.09 19.01">
  <defs>
    <style>
      .cls-1 {
        fill: #022933;
      }
    </style>
  </defs>
  <!-- Generator: Adobe Illustrator 28.6.0, SVG Export Plug-In . SVG Version: 1.2.0 Build 709)  -->
  <g>
    <g id="Capa_1">
      <g>
        <path class="cls-1" d="M.15,9.51c0-5.17,4.21-9.38,9.38-9.38,5.17,0,9.38,4.21,9.38,9.38,0,5.17-4.21,9.38-9.38,9.38S.15,14.68.15,9.51ZM18.1,9.51c0-4.72-3.84-8.56-8.56-8.56-4.72,0-8.56,3.84-8.56,8.56,0,4.72,3.84,8.56,8.56,8.56,4.72,0,8.56-3.84,8.56-8.56Z"/>
        <path class="cls-1" d="M5.12,8.3c.29-.28.75-.28,1.03,0l3.4,3.45,3.5-3.45c.29-.28.75-.28,1.03,0,.12.15,0,.34,0,.34l-4.54,4.48-4.42-4.48c-.04-.08-.07-.19,0-.34Z"/>
      </g>
    </g>
  </g>
</svg>