<?xml version="1.0" encoding="UTF-8"?>
<svg id="Capa_1" xmlns="http://www.w3.org/2000/svg" viewBox="0 0 23.03 22.83">
  <defs>
    <style>
      .cls-1 {
        fill: #f4efdf;
      }
    </style>
  </defs>
  <path class="cls-1" d="M11.57,22.79C5.29,22.79.19,17.68.19,11.41S5.29.03,11.57.03s11.38,5.1,11.38,11.38-5.1,11.38-11.38,11.38ZM11.57,1.55C6.13,1.55,1.7,5.97,1.7,11.41s4.43,9.86,9.86,9.86,9.86-4.42,9.86-9.86S17.01,1.55,11.57,1.55Z"/>
  <path class="cls-1" d="M11.57,19.06c-4.22,0-7.65-3.43-7.65-7.65s3.43-7.65,7.65-7.65,7.65,3.43,7.65,7.65-3.43,7.65-7.65,7.65ZM11.57,5.27c-3.38,0-6.14,2.75-6.14,6.14s2.75,6.14,6.14,6.14,6.14-2.75,6.14-6.14-2.75-6.14-6.14-6.14Z"/>
  <circle class="cls-1" cx="11.57" cy="11.41" r="2.64"/>
</svg>