<?xml version="1.0" encoding="UTF-8"?>
<svg id="Capa_1" xmlns="http://www.w3.org/2000/svg" viewBox="0 0 40.36 26.61">
  <defs>
    <style>
      .cls-1 {
        fill: none;
        stroke: #002430;
        stroke-miterlimit: 10;
        stroke-width: .25px;
      }

      .cls-2 {
        fill: #002430;
      }
    </style>
  </defs>
  <g>
    <path class="cls-1" d="M16.9,22.01c-.74,1.29-1.69,2.34-2.86,3.13-1.16.79-2.57,1.19-4.22,1.19-1.79,0-3.28-.39-4.48-1.16-1.2-.77-2.14-1.79-2.82-3.06-.68-1.27-1.17-2.66-1.46-4.18-.29-1.52-.44-3.03-.44-4.52s.18-3.01.55-4.56c.36-1.54.92-2.96,1.68-4.25.75-1.29,1.72-2.34,2.89-3.13,1.18-.79,2.59-1.19,4.24-1.19s3.16.39,4.32,1.18c1.16.78,2.1,1.81,2.81,3.08.38.68.7,1.4.96,2.15M14.51,8.78c-.15-1.06-.37-2.05-.65-2.96-.36-1.16-.86-2.09-1.5-2.78-.64-.69-1.46-1.03-2.47-1.03-.94,0-1.74.3-2.4.89-.66.59-1.18,1.4-1.57,2.42-.39,1.02-.67,2.17-.85,3.44-.18,1.27-.26,2.57-.26,3.9,0,1,.04,2.04.12,3.13.08,1.09.23,2.16.46,3.2.22,1.04.53,1.98.92,2.81.39.83.89,1.5,1.5,1.99.61.5,1.35.75,2.22.75.96,0,1.75-.3,2.36-.89.61-.59,1.1-1.4,1.46-2.42.13-.36.24-.73.34-1.11"/>
    <path class="cls-1" d="M27.2,10.17L34.74.27h1.48v16.27l3.53.04v2.46h-3.53v2.21c0,.52,0,1.03-.02,1.51-.01.49-.05.9-.12,1.23.45-.02.91-.04,1.39-.05.48-.01.91-.03,1.29-.05v1.89h-9.25v-1.57h.25c.71-.05,1.26-.22,1.66-.52.4-.3.68-.73.85-1.3.16-.57.25-1.31.25-2.21v-1.14h-5.2M28.34,16.43l4.18.04V6.15h-.07l-4.34,5.83"/>
  </g>
  <g>
    <g>
      <path class="cls-2" d="M21.64,19.12h-2.5c-.51,0-.92-.41-.92-.92s.41-.92.92-.92h.33v-2.68c-.45.17-.99-.06-1.17-.5-.1-.23-.1-.48-.01-.71.09-.23.27-.41.49-.51l1.31-.56s.06-.01.09-.02c.06-.01.1-.02.14-.03h.11s.07,0,.07,0c.06,0,.15.02.25.05.06.02.1.06.13.08.08.05.12.07.16.12.06.06.11.13.15.2h.02s.04.1.04.1c0,0,0,.02,0,.03v.03s.02.07.03.09v.07s.02.03.02.04v.02s.01.09.01.09v4.08h.33c.51,0,.92.41.92.92s-.41.92-.92.92ZM19.14,17.77c-.23,0-.42.19-.42.42s.19.42.42.42h2.5c.23,0,.42-.19.42-.42s-.19-.42-.42-.42h-.83l-.02-4.67-.03-.02v-.08s0,0,0,0c-.02-.04-.04-.08-.07-.1l-.14-.09s-.08-.02-.12-.02l-.07-.02v-.05s-.09-.17-.09-.17l.05.24-.16-.23.07.24-1.25.54c-.1.04-.18.13-.23.23-.04.11-.04.22,0,.32.09.21.35.31.56.22l.66-.28v3.93h-.83Z"/>
      <path class="cls-2" d="M20.39,21.8c-3.96,0-7.18-3.22-7.18-7.18s3.22-7.18,7.18-7.18,7.18,3.22,7.18,7.18-3.22,7.18-7.18,7.18ZM20.39,7.94c-3.68,0-6.68,3-6.68,6.68s3,6.68,6.68,6.68,6.68-3,6.68-6.68-3-6.68-6.68-6.68Z"/>
    </g>
    <path class="cls-2" d="M20.39,11.62c-.65,0-1.18-.53-1.18-1.18s.53-1.18,1.18-1.18,1.18.53,1.18,1.18-.53,1.18-1.18,1.18ZM20.39,9.76c-.38,0-.68.31-.68.68s.31.68.68.68.68-.31.68-.68-.31-.68-.68-.68Z"/>
  </g>
</svg>