<?xml version="1.0" encoding="UTF-8"?>
<svg id="Capa_1" xmlns="http://www.w3.org/2000/svg" viewBox="0 0 40.36 26.61">
  <defs>
    <style>
      .cls-1 {
        fill: #002430;
      }
    </style>
  </defs>
  <g>
    <path class="cls-1" d="M9.42,26.51c-1.83,0-3.36-.4-4.57-1.18-1.2-.78-2.16-1.83-2.83-3.12-.67-1.28-1.15-2.7-1.42-4.24-.27-1.53-.41-3.06-.41-4.56s.17-3.05.52-4.6c.35-1.55.9-3,1.64-4.31.74-1.31,1.72-2.38,2.9-3.19C6.43.51,7.88.1,9.57.1s3.24.4,4.41,1.2c1.17.79,2.11,1.85,2.79,3.14l-.22.12c-.67-1.25-1.58-2.28-2.71-3.05-1.13-.77-2.57-1.16-4.27-1.16s-3.04.4-4.18,1.18c-1.15.78-2.1,1.83-2.82,3.1-.73,1.28-1.27,2.71-1.61,4.24s-.51,3.06-.51,4.55.14,3.01.41,4.52c.27,1.51.74,2.91,1.4,4.17.65,1.25,1.58,2.27,2.75,3.03,1.17.76,2.66,1.14,4.44,1.14,1.63,0,3.03-.4,4.16-1.17,1.13-.78,2.07-1.83,2.77-3.1.29-.52.54-1.07.77-1.63l.23.09c-.23.57-.49,1.13-.78,1.66-.72,1.31-1.68,2.38-2.84,3.19-1.17.81-2.62,1.22-4.31,1.22ZM9.64,25.12c-.96,0-1.78-.27-2.44-.82-.65-.53-1.21-1.26-1.64-2.15-.43-.88-.78-1.88-1.03-2.97-.25-1.09-.43-2.21-.52-3.32-.09-1.12-.14-2.19-.14-3.19,0-1.33.1-2.67.29-3.99.19-1.31.51-2.52.94-3.6.43-1.09,1.02-1.97,1.73-2.62.72-.66,1.62-1,2.68-1s1.99.39,2.7,1.15c.47.5.88,1.12,1.22,1.84l-.23.11c-.33-.69-.72-1.29-1.17-1.77-.66-.71-1.51-1.07-2.52-1.07s-1.83.31-2.51.93c-.68.63-1.25,1.48-1.67,2.53-.42,1.06-.73,2.25-.92,3.55-.19,1.3-.29,2.63-.29,3.95,0,.99.05,2.06.14,3.17.09,1.11.27,2.21.52,3.29.25,1.07.59,2.06,1.01,2.92.42.86.95,1.56,1.58,2.07.62.5,1.38.76,2.28.76.99,0,1.81-.31,2.45-.93.65-.63,1.17-1.48,1.56-2.53.12-.34.24-.7.34-1.05l.24.07c-.1.36-.21.71-.34,1.07-.4,1.09-.94,1.97-1.62,2.62-.69.66-1.57,1-2.62,1Z"/>
    <path class="cls-1" d="M31.05,26.51c-1.73,0-3.18-.26-4.31-.78-1.13-.52-1.99-1.18-2.54-1.95-.55-.78-.83-1.54-.83-2.25,0-.57.15-1.06.46-1.45.31-.4.75-.61,1.31-.64.44-.03.82.06,1.1.26.27.19.46.44.56.72.1.28.15.53.15.76,0,.25-.04.5-.11.75-.07.23-.16.46-.27.69.24.76.74,1.29,1.54,1.63.83.35,1.73.53,2.68.53,1.65,0,2.99-.46,3.97-1.36.98-.9,1.48-2.23,1.48-3.95,0-1.03-.17-2.02-.49-2.94-.32-.91-.93-1.66-1.81-2.24-.88-.58-2.18-.85-3.9-.8-.19,0-.39,0-.6.02-.21.01-.45.03-.71.05h-.14s0-1.86,0-1.86h1.59c1.23,0,2.2-.28,2.89-.83.69-.55,1.2-1.22,1.5-1.99.3-.77.46-1.49.46-2.13,0-.96-.12-1.83-.37-2.59-.24-.74-.66-1.34-1.26-1.76-.6-.42-1.44-.64-2.5-.64s-1.94.27-2.68.82c-.71.52-1.17,1.06-1.36,1.6.2.23.34.47.42.7.09.25.13.52.13.79,0,.21-.06.45-.17.71-.12.27-.31.5-.56.68-.26.18-.61.27-1.04.27-.54,0-.96-.2-1.24-.59-.28-.38-.42-.83-.42-1.36,0-.69.27-1.45.81-2.27.53-.81,1.36-1.52,2.46-2.11,1.1-.59,2.49-.89,4.15-.89,1.29,0,2.51.21,3.62.62,1.12.41,2.02,1.09,2.7,2.03.68.94,1.02,2.18,1.02,3.7,0,.75-.19,1.52-.57,2.29-.38.77-1,1.48-1.86,2.14-.75.57-1.75,1.07-2.99,1.49,2.02.3,3.65,1.02,4.86,2.14,1.32,1.23,1.99,2.82,1.99,4.7,0,1.64-.44,3.02-1.3,4.1-.86,1.07-1.99,1.89-3.38,2.42-1.38.53-2.88.79-4.46.79ZM25.3,19.68s-.09,0-.14,0c-.49.02-.86.2-1.12.54-.27.35-.4.78-.4,1.3,0,.66.26,1.37.78,2.11.52.74,1.34,1.37,2.43,1.87,1.1.5,2.51.76,4.2.76,1.55,0,3.02-.26,4.37-.78,1.34-.51,2.44-1.3,3.27-2.34.82-1.03,1.24-2.36,1.24-3.94,0-1.81-.64-3.33-1.91-4.52-1.27-1.19-3.05-1.91-5.27-2.15l-.61-.06.59-.18c1.46-.45,2.62-.99,3.45-1.62.83-.63,1.43-1.32,1.79-2.05.36-.73.54-1.46.54-2.18,0-1.47-.33-2.66-.98-3.55-.65-.89-1.52-1.54-2.59-1.94-1.08-.4-2.27-.6-3.53-.6-1.62,0-2.97.29-4.03.86-1.06.57-1.86,1.25-2.37,2.03-.51.77-.77,1.49-.77,2.13,0,.47.12.88.37,1.21.24.33.58.49,1.04.49.38,0,.68-.08.89-.23.22-.15.38-.34.47-.57.1-.23.15-.44.15-.61,0-.25-.04-.49-.12-.71-.08-.22-.22-.45-.42-.67l-.05-.05.02-.07c.2-.62.69-1.22,1.47-1.8.78-.57,1.73-.86,2.83-.86s2.01.23,2.65.68c.64.46,1.09,1.09,1.35,1.89.25.78.38,1.68.38,2.67,0,.68-.16,1.43-.47,2.23-.32.8-.85,1.51-1.58,2.09-.73.59-1.76.89-3.04.89h-1.34v1.35c.21-.02.41-.03.58-.04.22-.01.42-.02.62-.02,1.75-.05,3.11.24,4.04.84.92.61,1.57,1.41,1.91,2.37.34.95.51,1.97.51,3.03,0,1.79-.52,3.18-1.56,4.13-1.03.95-2.43,1.43-4.14,1.43-.99,0-1.93-.18-2.78-.55-.88-.37-1.45-.99-1.7-1.83v-.05s0-.04,0-.04c.12-.23.21-.46.28-.7.07-.23.1-.45.1-.68,0-.2-.05-.43-.14-.67s-.25-.44-.47-.6c-.2-.14-.47-.21-.8-.21Z"/>
  </g>
  <path class="cls-1" d="M15.88,18.58l-1.46-3.42-3.42-1.46.77-.77c.37-.37.89-.54,1.4-.46l1.81.27,1.78-1.97-5.18-2.21,1.13-1.13c.32-.32.78-.45,1.23-.35l5.27,1.22,1.95-1.95c.39-.39.91-.61,1.46-.62.33,0,.64.12.87.35s.36.54.35.87c0,.55-.23,1.07-.62,1.46l-1.95,1.95,1.15,4.95c.15.64-.04,1.31-.51,1.77l-.9.9-2.2-5.19-1.98,1.79.27,1.81c.08.51-.1,1.04-.46,1.4l-.77.77ZM11.95,13.52l2.89,1.23,1.23,2.89.2-.2c.25-.25.36-.6.31-.94l-.32-2.1,2.75-2.49,2.19,5.15.33-.33c.34-.34.47-.81.36-1.27l-1.22-5.24,2.16-2.16c.29-.29.45-.68.46-1.09h0c0-.18-.07-.35-.19-.48-.13-.13-.29-.2-.48-.19-.41,0-.8.17-1.09.46l-2.16,2.16-5.56-1.29c-.26-.06-.53.02-.72.21l-.57.57,5.14,2.2-2.48,2.74-2.1-.32c-.34-.05-.7.06-.94.31l-.2.2Z"/>
</svg>