<?xml version="1.0" encoding="UTF-8"?>
<svg xmlns="http://www.w3.org/2000/svg" version="1.1" viewBox="0 0 300 139">
  <defs>
    <style>
      .cls-1 {
        fill: #f1edde;
      }
    </style>
  </defs>
  <!-- Generator: Adobe Illustrator 28.7.1, SVG Export Plug-In . SVG Version: 1.2.0 Build 142)  -->
  <g>
    <g id="Capa_1">
      <g>
        <g>
          <g>
            <path class="cls-1" d="M2.03,105.25l5.52-3.11v-41.15l-5.52-3.15v-.64h21.02c2.93,0,5.48.35,7.65,1.05,2.17.7,3.96,1.68,5.4,2.93,1.43,1.25,2.5,2.73,3.22,4.43.71,1.7,1.07,3.56,1.07,5.57,0,2.35-.44,4.44-1.3,6.28-.87,1.84-2.12,3.38-3.74,4.64-1.62,1.25-3.61,2.21-5.96,2.86-2.35.65-5.01.98-7.99.98h-3.49v-1.46l3.55-.03c1.74-.02,3.3-.32,4.69-.9,1.39-.58,2.57-1.42,3.55-2.54.98-1.12,1.74-2.5,2.27-4.15.53-1.65.8-3.55.8-5.72s-.28-4-.83-5.57c-.55-1.57-1.35-2.86-2.37-3.89-1.03-1.03-2.29-1.79-3.78-2.28-1.49-.5-3.16-.74-5.02-.74h-6.07v43.45l6.23,3.15v.64H2.03v-.64Z"/>
            <path class="cls-1" d="M66.13,105.25l5.45-3.15-4.33-12.15h-18.75l-4.3,12.15h.03l7.11,3.15v.64h-14.99v-.64l6.06-3.11,14.28-39.73-3.22-4.57v-.64h9.37l16.58,44.94,5.72,3.11v.64h-19.02v-.64ZM49.04,88.47h17.67l-8.83-24.87-8.83,24.87Z"/>
            <path class="cls-1" d="M88.39,105.25l5.52-3.11v-41.15l-5.52-3.15v-.64h21.52c2.73,0,5.13.29,7.21.88,2.08.59,3.81,1.41,5.21,2.47,1.4,1.06,2.45,2.34,3.16,3.82.71,1.49,1.07,3.15,1.07,4.97,0,2.08-.35,3.88-1.07,5.41-.71,1.53-1.67,2.84-2.88,3.91-1.21,1.07-2.61,1.93-4.2,2.59-1.59.65-3.28,1.14-5.06,1.46.59.18,1.22.32,1.89.42.68.1,1.36.18,2.06.22l10.93,18.85,4.77,3.08.03.61h-11.24l-11.91-22.78c-.54.05-1.08.08-1.62.1-.54.02-1.07.03-1.59.03h-2.94l-.17-1.39,3.49-.03c2.07-.02,3.86-.32,5.35-.88,1.49-.56,2.71-1.37,3.67-2.42.96-1.05,1.66-2.33,2.12-3.84.45-1.51.68-3.21.68-5.11,0-1.65-.2-3.14-.61-4.48-.41-1.34-1.06-2.49-1.95-3.45-.89-.96-2.05-1.7-3.46-2.22-1.41-.52-3.11-.78-5.1-.78h-6.71v43.45l5.52,3.15v.64h-18.17v-.64Z"/>
            <path class="cls-1" d="M188.56,62.8h18.17v.57l-5.52,2.79v36.39l5.52,2.79v.57h-18.17v-.57l5.52-2.76v-36.42l-5.52-2.79v-.57ZM204.03,55.05l-8.12,5.99h-.38l3.22-6.28h5.11l.17.29Z"/>
            <path class="cls-1" d="M228.87,56.42c.2,0,.41,0,.61.02.2.01.42.03.64.05,1.15.07,2.3.22,3.43.46,1.14.24,2.23.52,3.28.85,1.05.33,2.04.69,2.98,1.08.94.39,1.79.78,2.55,1.17l.81,10.56h-.47c-.27-.52-.62-1.25-1.05-2.18-.43-.94-.99-1.95-1.69-3.03-.7-1.08-1.53-2.17-2.5-3.27-.97-1.09-2.13-2.05-3.49-2.86-1.04-.54-2.05-.91-3.03-1.1-.98-.19-1.99-.29-3.03-.29-1.26,0-2.45.2-3.55.59-1.11.39-2.07.96-2.89,1.69-.82.73-1.48,1.64-1.96,2.71-.49,1.07-.74,2.28-.76,3.64-.02,1.35.28,2.56.91,3.62.63,1.06,1.51,2.03,2.62,2.91,1.12.88,2.43,1.72,3.93,2.52,1.5.8,3.11,1.63,4.82,2.49,1.85.93,3.61,1.87,5.28,2.84,1.67.97,3.14,2.05,4.4,3.25,1.26,1.2,2.27,2.54,3.01,4.04.74,1.5,1.1,3.25,1.08,5.26-.05,2.37-.52,4.39-1.44,6.06-.91,1.67-2.17,3.04-3.76,4.11-1.59,1.07-3.46,1.86-5.6,2.35-2.14.5-4.44.74-6.9.74-1.4,0-2.77-.11-4.13-.32-1.35-.21-2.65-.49-3.89-.83-1.24-.34-2.4-.72-3.47-1.15-1.07-.43-2.04-.85-2.89-1.25l-.78-10.76h.47c.86,1.67,1.8,3.28,2.83,4.84,1.03,1.56,2.15,2.93,3.37,4.11,1.22,1.18,2.54,2.13,3.96,2.84,1.42.71,2.96,1.07,4.6,1.07h1.15c1.78,0,3.31-.29,4.59-.86,1.27-.58,2.32-1.32,3.13-2.23s1.41-1.93,1.79-3.06c.38-1.13.58-2.24.58-3.35.02-1.44-.29-2.74-.95-3.89-.65-1.15-1.52-2.2-2.61-3.15-1.08-.95-2.34-1.82-3.76-2.62-1.42-.8-2.89-1.6-4.4-2.39-1.71-.88-3.42-1.79-5.11-2.74-1.69-.95-3.21-2-4.55-3.15-1.34-1.15-2.43-2.45-3.25-3.91-.82-1.46-1.22-3.14-1.2-5.06.02-2.05.43-3.85,1.23-5.4.8-1.55,1.92-2.84,3.35-3.88,1.43-1.04,3.14-1.82,5.13-2.35,1.98-.53,4.17-.8,6.57-.8Z"/>
            <path class="cls-1" d="M274.25,106.71c-3.45,0-6.63-.62-9.53-1.86-2.9-1.24-5.39-2.97-7.48-5.18-2.09-2.21-3.71-4.86-4.87-7.94-1.16-3.08-1.74-6.45-1.74-10.1s.58-7.06,1.74-10.14c1.16-3.08,2.79-5.74,4.87-7.97,2.09-2.23,4.58-3.98,7.48-5.23,2.9-1.25,6.07-1.88,9.53-1.88,3.47,0,6.66.62,9.56,1.86,2.9,1.24,5.4,2.98,7.5,5.21,2.1,2.23,3.73,4.89,4.91,7.97,1.17,3.08,1.76,6.46,1.76,10.14s-.58,7.05-1.74,10.12c-1.16,3.07-2.79,5.71-4.89,7.94-2.1,2.22-4.6,3.95-7.51,5.19-2.91,1.24-6.1,1.86-9.58,1.86ZM274.25,105.25c2.5,0,4.74-.56,6.7-1.68s3.62-2.7,4.97-4.75c1.35-2.05,2.38-4.53,3.08-7.45.7-2.91,1.05-6.16,1.05-9.75s-.35-6.84-1.05-9.76c-.7-2.92-1.73-5.41-3.08-7.48-1.35-2.06-3.01-3.66-4.97-4.79-1.96-1.13-4.2-1.69-6.7-1.69-2.5,0-4.73.56-6.68,1.69-1.95,1.13-3.6,2.72-4.94,4.79-1.34,2.06-2.36,4.56-3.05,7.48-.69,2.92-1.03,6.18-1.03,9.76s.34,6.8,1.03,9.71c.69,2.91,1.7,5.4,3.05,7.46,1.34,2.06,2.99,3.65,4.94,4.77,1.95,1.12,4.18,1.68,6.68,1.68Z"/>
            <path class="cls-1" d="M179.59,102.14l-16.58-44.94h-9.37v.64l3.22,4.57-14.28,39.73-6.06,3.11v.64h6.51c.07-.17,15.01-42.3,15.01-42.3l15.14,42.3h12.13v-.64l-5.72-3.11Z"/>
          </g>
          <g>
            <path class="cls-1" d="M5.64,136.8v-.1c.94-.1,1.53-.42,1.53-1.53v-11.14h-1.76c-.73,0-1.13.59-1.68,1.53l-1.17,1.99h-.1l.57-3.75h9.48l.57,3.75h-.1l-1.17-1.99c-.55-.94-.96-1.53-1.68-1.53h-1.74v11.14c0,1.11.59,1.43,1.53,1.53v.1h-4.3Z"/>
            <path class="cls-1" d="M55.5,136.8v-.1c.76-.1,1.61-.57,1.26-1.53l-.92-2.58h-5.33l-.69,1.93c-.63,1.76.06,2.08.97,2.18v.1h-3.33v-.1c.82-.1,1.55-.61,2.14-2.27l3.48-9.61c-.29-.63-.59-.92-1.28-.92h-.02v-.1h2.22l4.11,11.37c.36,1.01.69,1.43,1.8,1.53v.1h-4.42ZM53.2,125.14l-2.6,7.23h5.16l-2.56-7.23Z"/>
            <path class="cls-1" d="M97.56,136.8v-.1c.94-.1,1.53-.42,1.53-1.53v-3.86l-3.75-6.35c-.5-.86-.98-1.01-1.74-1.07v-.1h4.3v.1c-1.07.08-1.49.4-1.11,1.07l3.44,5.85,2.69-4.72c.88-1.53.44-2.08-.82-2.2v-.1h3.42v.1c-1.11.11-1.53.8-2.39,2.31l-2.81,4.93v4.03c0,1.11.59,1.43,1.53,1.53v.1h-4.3Z"/>
            <path class="cls-1" d="M141.78,136.8v-.1c.94-.1,1.53-.42,1.53-1.53v-9.75c0-1.11-.59-1.43-1.53-1.53v-.1h5.6c2.85,0,4.95,1.22,4.95,3.35s-1.97,3.35-4.64,3.35h-.86l1.61.57,2.77,4.21c.44.67.96,1.34,2.03,1.43v.1h-2.54l-4.11-6.31h-2.03v4.68c0,1.11.52,1.45,1.34,1.53v.1h-4.11ZM144.55,124.04v6.23h2.87c2.1,0,3.52-.9,3.52-3.12s-1.41-3.12-3.52-3.12h-2.87Z"/>
            <path class="cls-1" d="M247.8,136.8l-7.67-11.32v8.93c0,1.7.59,2.2,1.53,2.29v.1h-3.29v-.1c.94-.1,1.53-.59,1.53-2.29v-9.25l-.23-.34c-.4-.57-.88-.82-1.3-.92v-.1h2.12l7.34,10.84v-8.45c0-1.7-.59-2.2-1.53-2.29v-.1h3.29v.1c-.94.1-1.53.59-1.53,2.29v10.61h-.27Z"/>
            <path class="cls-1" d="M293.49,136.8v-.1c.76-.1,1.61-.57,1.26-1.53l-.92-2.58h-5.33l-.69,1.93c-.63,1.76.06,2.08.97,2.18v.1h-3.33v-.1c.82-.1,1.55-.61,2.14-2.27l3.48-9.61c-.29-.63-.59-.92-1.28-.92h-.02v-.1h2.22l4.11,11.37c.36,1.01.69,1.43,1.8,1.53v.1h-4.42ZM291.2,125.14l-2.6,7.23h5.16l-2.56-7.23Z"/>
            <path class="cls-1" d="M195.53,137.81c-4.14,0-7.51-3.37-7.51-7.51s3.37-7.51,7.51-7.51,7.51,3.37,7.51,7.51-3.37,7.51-7.51,7.51ZM195.53,123.8c-3.59,0-6.51,2.92-6.51,6.51s2.92,6.51,6.51,6.51,6.51-2.92,6.51-6.51-2.92-6.51-6.51-6.51Z"/>
            <path class="cls-1" d="M195.53,135.35c-2.78,0-5.05-2.26-5.05-5.05s2.27-5.05,5.05-5.05,5.05,2.27,5.05,5.05-2.26,5.05-5.05,5.05ZM195.53,126.26c-2.23,0-4.05,1.82-4.05,4.05s1.82,4.05,4.05,4.05,4.05-1.82,4.05-4.05-1.82-4.05-4.05-4.05Z"/>
            <circle class="cls-1" cx="195.53" cy="130.31" r="1.74"/>
          </g>
        </g>
        <g>
          <path class="cls-1" d="M89.8,3.46c-.95-.29-1.88-.5-2.8-.61s-1.81-.17-2.7-.17c-2.65,0-4.97.59-6.97,1.78-2,1.19-3.68,2.84-5.02,4.95-1.35,2.12-2.36,4.63-3.05,7.53-.69,2.91-1.04,6.09-1.04,9.55s.37,6.78,1.1,9.69c.73,2.91,1.81,5.39,3.22,7.46,1.41,2.07,3.15,3.67,5.21,4.8,2.06,1.13,4.42,1.7,7.09,1.7.75,0,1.53-.06,2.36-.17.83-.11,1.68-.31,2.56-.58l.31-.17c1.81-.88,3.32-1.98,4.53-3.31,1.21-1.32,2.19-2.66,2.94-4.02.75-1.36,1.32-2.64,1.71-3.83.4-1.2.68-2.1.87-2.71h.61l-.88,12.62c-2.33,1.02-4.64,1.86-6.94,2.53-2.3.67-4.65,1.02-7.07,1.07-.2,0-.41,0-.63.02-.21.01-.44.02-.66.02-3.62,0-6.92-.62-9.91-1.87-2.99-1.24-5.54-2.97-7.67-5.19-2.13-2.22-3.77-4.86-4.94-7.92-1.17-3.06-1.75-6.42-1.75-10.06s.56-7.05,1.7-10.15c1.13-3.1,2.75-5.78,4.87-8.04,2.11-2.26,4.68-4.03,7.7-5.29,3.02-1.27,6.42-1.9,10.2-1.9.29,0,.58,0,.87.02.28.01.56.03.83.05,2.31.11,4.55.49,6.73,1.12,2.18.63,4.4,1.46,6.67,2.48l.88,12.59h-.61c-.14-.43-.31-.99-.51-1.68-.2-.69-.47-1.45-.81-2.29-.34-.84-.75-1.71-1.24-2.61-.49-.9-1.08-1.8-1.78-2.68s-1.52-1.72-2.46-2.51c-.94-.79-2.02-1.48-3.24-2.07l-.27-.14Z"/>
          <path class="cls-1" d="M135.67,50.15l5.46-3.16-4.34-12.18h-18.8l-4.31,12.18h.03l7.12,3.16v.64h-15.03v-.64l6.07-3.12,14.32-39.83-3.22-4.58v-.64h9.4l16.63,45.06,5.73,3.12v.64h-19.07v-.64ZM118.53,33.32h17.71l-8.86-24.94-8.86,24.94Z"/>
          <path class="cls-1" d="M174.89,1.19c.2,0,.41,0,.61.02s.42.03.64.05c1.15.07,2.3.22,3.44.46,1.14.24,2.24.52,3.29.85,1.05.33,2.05.69,2.99,1.09.94.4,1.79.79,2.56,1.17l.81,10.59h-.47c-.27-.52-.62-1.25-1.05-2.19-.43-.94-1-1.95-1.7-3.04-.7-1.09-1.54-2.18-2.51-3.27-.97-1.1-2.14-2.05-3.49-2.87-1.04-.54-2.05-.91-3.04-1.1-.98-.19-2-.29-3.04-.29-1.27,0-2.46.2-3.56.59-1.11.4-2.08.96-2.9,1.7-.83.74-1.48,1.64-1.97,2.71-.49,1.07-.74,2.29-.76,3.65-.02,1.36.28,2.57.92,3.63.63,1.06,1.51,2.04,2.63,2.92,1.12.88,2.43,1.73,3.94,2.53,1.5.8,3.12,1.63,4.83,2.49,1.85.93,3.62,1.88,5.29,2.85,1.67.97,3.14,2.06,4.41,3.26,1.27,1.2,2.27,2.55,3.02,4.05.75,1.5,1.11,3.26,1.09,5.28-.05,2.38-.53,4.4-1.44,6.07-.92,1.67-2.17,3.05-3.77,4.12s-3.47,1.86-5.62,2.36c-2.15.5-4.46.75-6.92.75-1.4,0-2.78-.11-4.14-.32-1.36-.22-2.66-.49-3.9-.83-1.24-.34-2.4-.72-3.48-1.15-1.08-.43-2.04-.85-2.9-1.26l-.78-10.79h.47c.86,1.67,1.8,3.29,2.83,4.85,1.03,1.56,2.16,2.94,3.38,4.12,1.22,1.19,2.54,2.14,3.97,2.85,1.43.71,2.96,1.07,4.61,1.07h1.15c1.79,0,3.32-.29,4.6-.87,1.28-.58,2.32-1.32,3.14-2.24s1.41-1.94,1.8-3.07c.38-1.13.58-2.25.58-3.36.02-1.45-.29-2.75-.95-3.9-.66-1.15-1.53-2.21-2.61-3.16-1.09-.95-2.34-1.83-3.77-2.63-1.43-.8-2.9-1.6-4.41-2.39-1.72-.88-3.43-1.8-5.12-2.75-1.7-.95-3.22-2-4.56-3.16-1.35-1.15-2.43-2.46-3.26-3.92-.83-1.46-1.23-3.15-1.21-5.07.02-2.06.44-3.86,1.24-5.41.8-1.55,1.92-2.84,3.36-3.88,1.44-1.04,3.15-1.83,5.14-2.36,1.99-.53,4.18-.8,6.58-.8Z"/>
          <path class="cls-1" d="M222.25,50.15l5.46-3.16-4.34-12.18h-18.8l-4.31,12.18h.03l7.12,3.16v.64h-15.03v-.64l6.07-3.12,14.32-39.83-3.22-4.58v-.64h9.4l16.62,45.06,5.73,3.12v.64h-19.07v-.64ZM205.12,33.32h17.71l-8.86-24.94-8.86,24.94Z"/>
        </g>
      </g>
    </g>
  </g>
</svg>